<svg width="25" height="24" viewBox="0 0 25 24" fill="none" xmlns="http://www.w3.org/2000/svg">
<path d="M21.375 10H3.375M16.375 2V6M8.375 2V6M8.175 22H16.575C18.2552 22 19.0952 22 19.737 21.673C20.3015 21.3854 20.7604 20.9265 21.048 20.362C21.375 19.7202 21.375 18.8802 21.375 17.2V8.8C21.375 7.11984 21.375 6.27976 21.048 5.63803C20.7604 5.07354 20.3015 4.6146 19.737 4.32698C19.0952 4 18.2552 4 16.575 4H8.175C6.49484 4 5.65476 4 5.01303 4.32698C4.44854 4.6146 3.9896 5.07354 3.70198 5.63803C3.375 6.27976 3.375 7.11984 3.375 8.8V17.2C3.375 18.8802 3.375 19.7202 3.70198 20.362C3.9896 20.9265 4.44854 21.3854 5.01303 21.673C5.65476 22 6.49484 22 8.175 22Z" stroke="#667085" style="stroke:#667085;stroke:color(display-p3 0.4009 0.4408 0.5207);stroke-opacity:1;" stroke-width="2" stroke-linecap="round" stroke-linejoin="round"/>
</svg>
