<svg width="24" height="24" viewBox="0 0 24 24" fill="none" xmlns="http://www.w3.org/2000/svg">
<path d="M14.806 10.917L11.759 9.15799C11.366 8.92999 10.899 8.93099 10.508 9.15799C10.117 9.38399 9.88397 9.78799 9.88397 10.24V13.759C9.88397 14.21 10.117 14.616 10.508 14.841C10.704 14.955 10.919 15.011 11.133 15.011C11.348 15.011 11.563 14.955 11.759 14.841L14.806 13.083C15.197 12.856 15.431 12.451 15.431 12C15.431 11.548 15.197 11.143 14.806 10.917Z" fill="#667085" style="fill:#667085;fill:color(display-p3 0.4009 0.4408 0.5207);fill-opacity:1;"/>
<path d="M16.768 7.22696C16.475 6.93596 15.999 6.93696 15.707 7.23196C15.416 7.52596 15.418 8.00096 15.712 8.29196C16.704 9.27496 17.25 10.592 17.25 12C17.25 13.408 16.704 14.725 15.712 15.708C15.418 15.999 15.416 16.474 15.707 16.769C15.854 16.916 16.047 16.99 16.24 16.99C16.431 16.99 16.622 16.918 16.768 16.773C18.046 15.507 18.75 13.811 18.75 12C18.75 10.188 18.046 8.49396 16.768 7.22696Z" fill="#667085" style="fill:#667085;fill:color(display-p3 0.4009 0.4408 0.5207);fill-opacity:1;"/>
<path d="M8.292 7.23196C8 6.93696 7.525 6.93596 7.231 7.22696C5.953 8.49396 5.25 10.189 5.25 12C5.25 13.812 5.953 15.507 7.231 16.774C7.377 16.918 7.568 16.99 7.759 16.99C7.952 16.99 8.146 16.916 8.292 16.769C8.584 16.474 8.582 15.999 8.287 15.708C7.295 14.725 6.75 13.408 6.75 12C6.75 10.592 7.295 9.27496 8.287 8.29296C8.582 8.00096 8.584 7.52596 8.292 7.23196Z" fill="#667085" style="fill:#667085;fill:color(display-p3 0.4009 0.4408 0.5207);fill-opacity:1;"/>
<path d="M19.6 4.39999C19.307 4.10699 18.832 4.10699 18.539 4.39999C18.246 4.69299 18.246 5.16799 18.539 5.46099C20.287 7.20899 21.25 9.53099 21.25 12C21.25 14.469 20.287 16.792 18.539 18.54C18.246 18.833 18.246 19.308 18.539 19.601C18.686 19.747 18.878 19.82 19.07 19.82C19.262 19.82 19.454 19.747 19.6 19.601C21.631 17.569 22.75 14.869 22.75 12C22.75 9.12999 21.631 6.43099 19.6 4.39999Z" fill="#667085" style="fill:#667085;fill:color(display-p3 0.4009 0.4408 0.5207);fill-opacity:1;"/>
<path d="M2.75 12C2.75 9.53099 3.712 7.20799 5.46 5.45999C5.753 5.16699 5.753 4.69299 5.46 4.39999C5.167 4.10699 4.693 4.10699 4.4 4.39999C2.369 6.43099 1.25 9.12999 1.25 12C1.25 14.869 2.369 17.569 4.4 19.601C4.546 19.747 4.738 19.82 4.93 19.82C5.122 19.82 5.314 19.747 5.46 19.601C5.753 19.308 5.753 18.833 5.46 18.54C3.712 16.792 2.75 14.469 2.75 12Z" fill="#667085" style="fill:#667085;fill:color(display-p3 0.4009 0.4408 0.5207);fill-opacity:1;"/>
</svg>
