<svg width="25" height="24" viewBox="0 0 25 24" fill="none" xmlns="http://www.w3.org/2000/svg">
<path d="M7.75 10.5H7.76M12.25 10.5H12.26M16.75 10.5H16.76M7.25 18V20.3355C7.25 20.8684 7.25 21.1348 7.35923 21.2716C7.45422 21.3906 7.59827 21.4599 7.75054 21.4597C7.92563 21.4595 8.13367 21.2931 8.54976 20.9602L10.9352 19.0518C11.4225 18.662 11.6662 18.4671 11.9375 18.3285C12.1782 18.2055 12.4344 18.1156 12.6992 18.0613C12.9977 18 13.3097 18 13.9337 18H16.45C18.1302 18 18.9702 18 19.612 17.673C20.1765 17.3854 20.6354 16.9265 20.923 16.362C21.25 15.7202 21.25 14.8802 21.25 13.2V7.8C21.25 6.11984 21.25 5.27976 20.923 4.63803C20.6354 4.07354 20.1765 3.6146 19.612 3.32698C18.9702 3 18.1302 3 16.45 3H8.05C6.36984 3 5.52976 3 4.88803 3.32698C4.32354 3.6146 3.8646 4.07354 3.57698 4.63803C3.25 5.27976 3.25 6.11984 3.25 7.8V14C3.25 14.93 3.25 15.395 3.35222 15.7765C3.62962 16.8117 4.43827 17.6204 5.47354 17.8978C5.85504 18 6.32003 18 7.25 18ZM8.25 10.5C8.25 10.7761 8.02614 11 7.75 11C7.47386 11 7.25 10.7761 7.25 10.5C7.25 10.2239 7.47386 10 7.75 10C8.02614 10 8.25 10.2239 8.25 10.5ZM12.75 10.5C12.75 10.7761 12.5261 11 12.25 11C11.9739 11 11.75 10.7761 11.75 10.5C11.75 10.2239 11.9739 10 12.25 10C12.5261 10 12.75 10.2239 12.75 10.5ZM17.25 10.5C17.25 10.7761 17.0261 11 16.75 11C16.4739 11 16.25 10.7761 16.25 10.5C16.25 10.2239 16.4739 10 16.75 10C17.0261 10 17.25 10.2239 17.25 10.5Z" stroke="#667085" style="stroke:#667085;stroke:color(display-p3 0.4009 0.4408 0.5207);stroke-opacity:1;" stroke-width="2" stroke-linecap="round" stroke-linejoin="round"/>
</svg>
