<svg width="25" height="24" viewBox="0 0 25 24" fill="none" xmlns="http://www.w3.org/2000/svg">
<path d="M22.4973 21V19C22.4973 17.1362 21.2225 15.5701 19.4973 15.126M15.9973 3.29076C17.4632 3.88415 18.4973 5.32131 18.4973 7C18.4973 8.67869 17.4632 10.1159 15.9973 10.7092M17.4973 21C17.4973 19.1362 17.4973 18.2044 17.1928 17.4693C16.7869 16.4892 16.0082 15.7105 15.028 15.3045C14.293 15 13.3611 15 11.4973 15H8.49731C6.63355 15 5.70166 15 4.96658 15.3045C3.98647 15.7105 3.20777 16.4892 2.8018 17.4693C2.49731 18.2044 2.49731 19.1362 2.49731 21M13.9973 7C13.9973 9.20914 12.2065 11 9.99731 11C7.78818 11 5.99731 9.20914 5.99731 7C5.99731 4.79086 7.78818 3 9.99731 3C12.2065 3 13.9973 4.79086 13.9973 7Z" stroke="#667085" style="stroke:#667085;stroke:color(display-p3 0.4009 0.4408 0.5207);stroke-opacity:1;" stroke-width="2" stroke-linecap="round" stroke-linejoin="round"/>
</svg>
