<svg width="25" height="24" viewBox="0 0 25 24" fill="none" xmlns="http://www.w3.org/2000/svg">
<path d="M9.38544 21C10.0906 21.6224 11.0168 22 12.0313 22C13.0457 22 13.972 21.6224 14.6771 21M18.0313 8C18.0313 6.4087 17.3991 4.88258 16.2739 3.75736C15.1487 2.63214 13.6226 2 12.0313 2C10.44 2 8.91385 2.63214 7.78863 3.75736C6.66341 4.88258 6.03127 6.4087 6.03127 8C6.03127 11.0902 5.25174 13.206 4.38093 14.6054C3.6464 15.7859 3.27913 16.3761 3.29259 16.5408C3.30751 16.7231 3.34613 16.7926 3.49304 16.9016C3.62573 17 4.22386 17 5.42012 17H18.6424C19.8387 17 20.4368 17 20.5695 16.9016C20.7164 16.7926 20.755 16.7231 20.7699 16.5408C20.7834 16.3761 20.4161 15.7859 19.6816 14.6054C18.8108 13.206 18.0313 11.0902 18.0313 8Z" stroke="#667085" style="stroke:#667085;stroke:color(display-p3 0.4009 0.4408 0.5207);stroke-opacity:1;" stroke-width="2" stroke-linecap="round" stroke-linejoin="round"/>
</svg>
